<?xml version="1.0" encoding="UTF-8" standalone="no"?>
<svg width="30px" height="30px" viewBox="0 0 30 30" version="1.1" xmlns="http://www.w3.org/2000/svg" xmlns:xlink="http://www.w3.org/1999/xlink">
    <!-- Generator: sketchtool 39.1 (31720) - http://www.bohemiancoding.com/sketch -->
    <title>61C4E1FF-0C94-4CF2-843C-DA4AA5D45363</title>
    <desc>Created with sketchtool.</desc>
    <defs></defs>
    <g id="UI-Web" stroke="none" stroke-width="1" fill="none" fill-rule="evenodd" opacity="0.6">
        <g id="1.2.1_Search_Results_Filter_Desktop" transform="translate(-1107.000000, -215.000000)" fill="#8592A5">
            <g id="HEADER">
                <g id="SEARCH" transform="translate(0.000000, 160.000000)">
                    <g id="search">
                        <g id="links" transform="translate(680.000000, 20.000000)">
                            <g id="header">
                                <g id="input-copy">
                                    <g id="Group-5" transform="translate(240.000000, 32.000000)">
                                        <g id="calendar" transform="translate(187.000000, 3.000000)">
                                            <path d="M21.1406906,6.17640884 L21.1406906,5.24309392 C21.1406906,4.55655801 20.5841326,4 19.8975967,4 C19.161337,4 18.604779,4.55655801 18.604779,5.24309392 L18.604779,6.17640884 L12.1904144,6.17640884 L12.1904144,5.24309392 C12.1904144,4.55655801 11.6338564,4 10.9473204,4 C10.2110608,4 9.65450276,4.55655801 9.65450276,5.24309392 L9.65450276,6.17640884 L8.28709945,6.17640884 C7.60056354,6.17640884 7.04400552,6.73296685 7.04400552,7.41950276 L7.04400552,22.7454696 C7.04400552,23.432105 7.60056354,23.9885635 8.28709945,23.9885635 L22.5080939,23.9885635 C23.1946298,23.9885635 23.7511878,23.432105 23.7511878,22.7454696 L23.7511878,7.41950276 C23.7511878,6.73296685 23.1945801,6.17640884 22.5080939,6.17640884 L21.1406906,6.17640884 Z M21.6627901,22.0244751 L9.13240331,22.0244751 L9.13240331,9.93055249 L21.6627901,9.93055249 L21.6627901,20.0244751 L21.6627901,22.0244751 Z" id="Shape" opacity="0.5"></path>
                                            <path d="M10.8354917,13.4983757 L12.9983757,13.4983757 C13.1082155,13.4983757 13.1972707,13.4093204 13.1972707,13.2994807 L13.1972707,11.1365967 C13.1972707,11.0267569 13.1082155,10.9377017 12.9983757,10.9377017 L10.8354917,10.9377017 C10.7256519,10.9377017 10.6365967,11.0267569 10.6365967,11.1365967 L10.6365967,13.2994807 C10.6365967,13.4093204 10.7256519,13.4983757 10.8354917,13.4983757 L10.8354917,13.4983757 Z" id="Shape" opacity="0.5"></path>
                                            <path d="M14.3161547,13.4983757 L16.4790387,13.4983757 C16.5888785,13.4983757 16.6779337,13.4093204 16.6779337,13.2994807 L16.6779337,11.1365967 C16.6779337,11.0267569 16.5888785,10.9377017 16.4790387,10.9377017 L14.3161547,10.9377017 C14.2063149,10.9377017 14.1172597,11.0267569 14.1172597,11.1365967 L14.1172597,13.2994807 C14.1172597,13.4093204 14.2063149,13.4983757 14.3161547,13.4983757 L14.3161547,13.4983757 Z" id="Shape" opacity="0.5"></path>
                                            <path d="M17.7968177,13.4983757 L19.9597017,13.4983757 C20.0695414,13.4983757 20.1585967,13.4093204 20.1585967,13.2994807 L20.1585967,11.1365967 C20.1585967,11.0267569 20.0695414,10.9377017 19.9597017,10.9377017 L17.7968177,10.9377017 C17.6869779,10.9377017 17.5979227,11.0267569 17.5979227,11.1365967 L17.5979227,13.2994807 C17.5979227,13.4093204 17.6869779,13.4983757 17.7968177,13.4983757 L17.7968177,13.4983757 Z" id="Shape" opacity="0.5"></path>
                                            <path d="M10.8354917,20.4983757 L12.9983757,20.4983757 C13.1082155,20.4983757 13.1972707,20.4093204 13.1972707,20.2994807 L13.1972707,18.1365967 C13.1972707,18.0267569 13.1082155,17.9377017 12.9983757,17.9377017 L10.8354917,17.9377017 C10.7256519,17.9377017 10.6365967,18.0267569 10.6365967,18.1365967 L10.6365967,20.2994807 C10.6365967,20.4093204 10.7256519,20.4983757 10.8354917,20.4983757 L10.8354917,20.4983757 Z" id="Shape" opacity="0.5"></path>
                                            <path d="M14.3161547,20.4983757 L16.4790387,20.4983757 C16.5888785,20.4983757 16.6779337,20.4093204 16.6779337,20.2994807 L16.6779337,18.1365967 C16.6779337,18.0267569 16.5888785,17.9377017 16.4790387,17.9377017 L14.3161547,17.9377017 C14.2063149,17.9377017 14.1172597,18.0267569 14.1172597,18.1365967 L14.1172597,20.2994807 C14.1172597,20.4093204 14.2063149,20.4983757 14.3161547,20.4983757 L14.3161547,20.4983757 Z" id="Shape" opacity="0.5"></path>
                                            <path d="M17.7968177,20.4983757 L19.9597017,20.4983757 C20.0695414,20.4983757 20.1585967,20.4093204 20.1585967,20.2994807 L20.1585967,18.1365967 C20.1585967,18.0267569 20.0695414,17.9377017 19.9597017,17.9377017 L17.7968177,17.9377017 C17.6869779,17.9377017 17.5979227,18.0267569 17.5979227,18.1365967 L17.5979227,20.2994807 C17.5979227,20.4093204 17.6869779,20.4983757 17.7968177,20.4983757 L17.7968177,20.4983757 Z" id="Shape" opacity="0.5"></path>
                                            <path d="M10.8354917,16.9790387 L12.9983757,16.9790387 C13.1082155,16.9790387 13.1972707,16.8899834 13.1972707,16.7801436 L13.1972707,14.6172597 C13.1972707,14.5074199 13.1082155,14.4183646 12.9983757,14.4183646 L10.8354917,14.4183646 C10.7256519,14.4183646 10.6365967,14.5074199 10.6365967,14.6172597 L10.6365967,16.7801436 C10.6365967,16.8899834 10.7256519,16.9790387 10.8354917,16.9790387 L10.8354917,16.9790387 Z" id="Shape" opacity="0.5"></path>
                                            <path d="M14.3161547,16.9790387 L16.4790387,16.9790387 C16.5888785,16.9790387 16.6779337,16.8899834 16.6779337,16.7801436 L16.6779337,14.6172597 C16.6779337,14.5074199 16.5888785,14.4183646 16.4790387,14.4183646 L14.3161547,14.4183646 C14.2063149,14.4183646 14.1172597,14.5074199 14.1172597,14.6172597 L14.1172597,16.7801436 C14.1172597,16.8899834 14.2063149,16.9790387 14.3161547,16.9790387 L14.3161547,16.9790387 Z" id="Shape" opacity="0.5"></path>
                                            <path d="M17.7968177,16.9790387 L19.9597017,16.9790387 C20.0695414,16.9790387 20.1585967,16.8899834 20.1585967,16.7801436 L20.1585967,14.6172597 C20.1585967,14.5074199 20.0695414,14.4183646 19.9597017,14.4183646 L17.7968177,14.4183646 C17.6869779,14.4183646 17.5979227,14.5074199 17.5979227,14.6172597 L17.5979227,16.7801436 C17.5979227,16.8899834 17.6869779,16.9790387 17.7968177,16.9790387 L17.7968177,16.9790387 Z" id="Shape" opacity="0.5"></path>
                                        </g>
                                    </g>
                                </g>
                            </g>
                        </g>
                    </g>
                </g>
            </g>
        </g>
    </g>
</svg>