<?xml version="1.0" encoding="UTF-8" standalone="no"?>
<svg width="44px" height="44px" viewBox="0 0 44 44" version="1.1" xmlns="http://www.w3.org/2000/svg" xmlns:xlink="http://www.w3.org/1999/xlink">
    <!-- Generator: Sketch 39.1 (31720) - http://www.bohemiancoding.com/sketch -->
    <title>clock</title>
    <desc>Created with Sketch.</desc>
    <defs></defs>
    <g id="Element-Library" stroke="none" stroke-width="1" fill="none" fill-rule="evenodd">
        <g transform="translate(-112.000000, -2318.000000)" id="web" fill="currentColor">
            <g transform="translate(80.000000, 1160.000000)">
                <g id="icons" transform="translate(0.000000, 740.000000)">
                    <g id="clock" transform="translate(22.000000, 408.000000)">
                        <path d="M12,32 C12,43.044248 20.9433822,52 31.978,52 C43.0363362,52 52,43.0425223 52,32 C52,20.9574777 43.0363362,12 31.978,12 C20.9433822,12 12,20.955752 12,32 Z M54,32 C54,44.144 44.144,54 31.978,54 C19.834,54 10,44.144 10,32 C10,19.856 19.834,10 31.978,10 C44.144,10 54,19.856 54,32 Z M32.1,21 L29.8,21 L29.8,34.2 L41.35,41.13 L42.4494627,39.111084 L32.1,33.1542969 L32.1,21 Z" id="Combined-Shape"></path>
                    </g>
                </g>
            </g>
        </g>
    </g>
</svg>